<svg version="1.1" xmlns="http://www.w3.org/2000/svg" x="0px" y="0px" width="147.3px" height="54.8px" viewBox="0 0 147.3 54.8" style="enable-background:new 0 0 147.3 54.8" xml:space="preserve"><polygon fill="#1F1F1F" points="31.5,0 24.2,54.2 7.3,54.2 0,0 11.6,0 15.7,37.9 19.8,0 "/><path fill="#1F1F1F" d="M62.5,35.6H48v10.2c0,1.5,0.6,2.2,1.9,2.2c1.2,0,1.8-0.7,1.8-2.2V37h10.8v8.9c0,5.9-4.2,8.9-12.7,8.9 c-8.4,0-12.6-3.1-12.6-9.3V19.3c0-6.2,4.2-9.3,12.6-9.3s12.7,3,12.7,8.9C62.5,18.9,62.5,35.6,62.5,35.6z M51.7,29V19 c0-1.4-0.6-2.2-1.8-2.2S48,17.5,48,19v10H51.7z"/><rect fill="#1F1F1F" x="69.3" width="10.8" height="54.2"/><path fill="#1F1F1F" d="M86.7,45.6V19.3c0-6.2,4.3-9.3,12.8-9.3c3.3,0,6.2,0.7,8.7,2.2c2.5,1.4,3.8,3.7,3.8,6.7v27c0,5.9-4.2,8.9-12.5,8.9 C90.9,54.8,86.7,51.7,86.7,45.6 M101.2,45.9V19c0-1.4-0.6-2.2-1.9-2.2s-1.9,0.7-1.9,2.2v26.9c0,1.5,0.6,2.2,1.9,2.2 C100.6,48.1,101.2,47.4,101.2,45.9"/><polygon fill="#1F1F1F" points="147.3,54.2 135.5,54.2 131.8,42.3 128.3,54.2 117.5,54.2 125.9,31 117.7,10.3 129.1,10.3 132.8,21.7 135.7,10.3 145.9,10.3 138.7,31.5 "/></svg>
